<svg xmlns="http://www.w3.org/2000/svg" xmlns:xlink="http://www.w3.org/1999/xlink" version="1.1" id="_x2014_ÎÓÈ_x5F_1" x="0" y="0" width="100%" height="100%" viewBox="0 0 317.24 317.24" enable-background="new 0 0 317.24 317.24" xml:space="preserve"><style>.s0{stop-color:#FFFFFF;}.s1{stop-color:#F3F3F3;}.s2{stop-color:#D3D4D5;}.s3{stop-color:#9FA1A3;}.s4{stop-color:#575C5E;}.s5{stop-color:#3C4144;}</style><radialGradient id="SVGID_1_" cx="158.62" cy="158.62" r="239.55" gradientUnits="userSpaceOnUse"><stop offset="0" stop-color="#FFFFFF"/><stop offset="0.11" stop-color="#F3F3F3"/><stop offset="0.31" stop-color="#D3D4D5"/><stop offset="0.57" stop-color="#9FA1A3"/><stop offset="0.89" stop-color="#575C5E"/><stop offset="1" stop-color="#3C4144"/></radialGradient><path fill="url(#SVGID_1_)" d="M0 0v317.24h317.24V0H0zM314.51 314.51H2.74V2.74h311.77V314.51z"/><path opacity="0" fill="#FFFFFF" d="M206.28 316.16c0 1.61-28.1 2.92-62.75 2.92 -34.65 0-62.75-1.31-62.75-2.92s28.1-2.92 62.75-2.92C178.18 313.24 206.28 314.55 206.28 316.16z"/><path opacity="0.03" fill="#FFFFFF" d="M205.45 316.16c0 1.59-27.73 2.88-61.92 2.88s-61.92-1.29-61.92-2.88 27.73-2.88 61.92-2.88S205.45 314.57 205.45 316.16z"/><path opacity="0.06" fill="#FFFFFF" d="M204.62 316.16c0 1.57-27.35 2.84-61.09 2.84 -33.74 0-61.09-1.27-61.09-2.84s27.35-2.84 61.09-2.84C177.26 313.32 204.62 314.59 204.62 316.16z"/><path opacity="0.1" fill="#FFFFFF" d="M203.79 316.16c0 1.55-26.98 2.8-60.26 2.8 -33.28 0-60.26-1.25-60.26-2.8 0-1.55 26.98-2.8 60.26-2.8C176.81 313.35 203.79 314.61 203.79 316.16z"/><path opacity="0.13" fill="#FFFFFF" d="M202.96 316.16c0 1.53-26.61 2.76-59.43 2.76 -32.82 0-59.43-1.24-59.43-2.76s26.61-2.76 59.43-2.76C176.35 313.39 202.96 314.63 202.96 316.16z"/><path opacity="0.16" fill="#FFFFFF" d="M202.13 316.16c0 1.51-26.24 2.73-58.6 2.73 -32.36 0-58.6-1.22-58.6-2.72s26.24-2.72 58.6-2.72C175.89 313.43 202.13 314.65 202.13 316.16z"/><path opacity="0.19" fill="#FFFFFF" d="M201.29 316.16c0 1.48-25.87 2.69-57.77 2.69 -31.9 0-57.77-1.2-57.77-2.69s25.87-2.69 57.77-2.69C175.43 313.47 201.29 314.67 201.29 316.16z"/><path opacity="0.23" fill="#FFFFFF" d="M200.46 316.16c0 1.46-25.49 2.65-56.94 2.65s-56.94-1.19-56.94-2.65 25.49-2.65 56.94-2.65S200.46 314.69 200.46 316.16z"/><path opacity="0.26" fill="#FFFFFF" d="M199.63 316.16c0 1.44-25.12 2.61-56.1 2.61s-56.1-1.17-56.1-2.61 25.12-2.61 56.11-2.61S199.63 314.72 199.63 316.16z"/><path opacity="0.29" fill="#FFFFFF" d="M198.8 316.16c0 1.42-24.75 2.57-55.27 2.57 -30.52 0-55.27-1.15-55.27-2.57s24.75-2.57 55.27-2.57C174.05 313.59 198.8 314.74 198.8 316.16z"/><ellipse opacity="0.32" fill="#FFFFFF" cx="143.53" cy="316.16" rx="54.44" ry="2.53"/><path opacity="0.35" fill="#FFFFFF" d="M197.14 316.16c0 1.38-24.01 2.49-53.61 2.49 -29.61 0-53.61-1.12-53.61-2.49 0-1.38 24.01-2.49 53.61-2.49C173.13 313.66 197.14 314.78 197.14 316.16z"/><path opacity="0.39" fill="#FFFFFF" d="M196.31 316.16c0 1.36-23.63 2.45-52.78 2.45s-52.78-1.1-52.78-2.45 23.63-2.45 52.78-2.45S196.31 314.8 196.31 316.16z"/><path opacity="0.42" fill="#FFFFFF" d="M195.48 316.16c0 1.33-23.26 2.42-51.95 2.42 -28.69 0-51.95-1.08-51.95-2.41 0-1.33 23.26-2.42 51.95-2.42C172.22 313.74 195.48 314.82 195.48 316.16z"/><path opacity="0.45" fill="#FFFFFF" d="M194.65 316.16c0 1.31-22.89 2.38-51.12 2.38s-51.12-1.06-51.12-2.38 22.89-2.38 51.12-2.38S194.65 314.84 194.65 316.16z"/><path opacity="0.48" fill="#FFFFFF" d="M193.82 316.16c0 1.29-22.52 2.34-50.29 2.34s-50.29-1.05-50.29-2.34c0-1.29 22.52-2.34 50.29-2.34S193.82 314.86 193.82 316.16z"/><path opacity="0.52" fill="#FFFFFF" d="M192.98 316.16c0 1.27-22.15 2.3-49.46 2.3s-49.46-1.03-49.46-2.3 22.15-2.3 49.46-2.3S192.98 314.89 192.98 316.16z"/><path opacity="0.55" fill="#FFFFFF" d="M192.15 316.16c0 1.25-21.77 2.26-48.63 2.26s-48.63-1.01-48.63-2.26 21.77-2.26 48.63-2.26S192.15 314.91 192.15 316.16z"/><path opacity="0.58" fill="#FFFFFF" d="M191.32 316.16c0 1.23-21.4 2.22-47.8 2.22s-47.79-0.99-47.79-2.22 21.4-2.22 47.8-2.22S191.32 314.93 191.32 316.16z"/><path opacity="0.61" fill="#FFFFFF" d="M190.49 316.16c0 1.21-21.03 2.18-46.96 2.18s-46.96-0.98-46.96-2.18 21.03-2.18 46.96-2.18S190.49 314.95 190.49 316.16z"/><path opacity="0.65" fill="#FFFFFF" d="M189.66 316.16c0 1.19-20.66 2.15-46.13 2.15s-46.13-0.96-46.13-2.14 20.66-2.14 46.13-2.14S189.66 314.97 189.66 316.16z"/><path opacity="0.68" fill="#FFFFFF" d="M188.83 316.16c0 1.16-20.28 2.11-45.3 2.11s-45.3-0.94-45.3-2.11 20.29-2.11 45.3-2.11S188.83 314.99 188.83 316.16z"/><path opacity="0.71" fill="#FFFFFF" d="M188 316.16c0 1.14-19.91 2.07-44.47 2.07s-44.47-0.93-44.47-2.07c0-1.14 19.91-2.07 44.47-2.07S188 315.01 188 316.16z"/><path opacity="0.74" fill="#FFFFFF" d="M187.17 316.16c0 1.12-19.54 2.03-43.64 2.03s-43.64-0.91-43.64-2.03 19.54-2.03 43.64-2.03S187.17 315.04 187.17 316.16z"/><path opacity="0.77" fill="#FFFFFF" d="M186.34 316.16c0 1.1-19.17 1.99-42.81 1.99s-42.81-0.89-42.81-1.99 19.17-1.99 42.81-1.99S186.34 315.06 186.34 316.16z"/><path opacity="0.81" fill="#FFFFFF" d="M185.51 316.16c0 1.08-18.8 1.95-41.98 1.95s-41.98-0.87-41.98-1.95 18.8-1.95 41.98-1.95S185.51 315.08 185.51 316.16z"/><path opacity="0.84" fill="#FFFFFF" d="M184.68 316.16c0 1.06-18.42 1.91-41.15 1.91 -22.72 0-41.15-0.86-41.15-1.91s18.43-1.91 41.15-1.91C166.25 314.24 184.68 315.1 184.68 316.16z"/><path opacity="0.87" fill="#FFFFFF" d="M183.84 316.16c0 1.03-18.05 1.87-40.32 1.87 -22.26 0-40.32-0.84-40.32-1.87 0-1.04 18.05-1.87 40.32-1.87C165.79 314.28 183.84 315.12 183.84 316.16z"/><path opacity="0.9" fill="#FFFFFF" d="M183.01 316.16c0 1.01-17.68 1.84-39.48 1.84 -21.8 0-39.48-0.82-39.48-1.84 0-1.01 17.68-1.84 39.49-1.84C165.33 314.32 183.01 315.14 183.01 316.16z"/><path opacity="0.94" fill="#FFFFFF" d="M182.18 316.16c0 0.99-17.31 1.8-38.65 1.8 -21.34 0-38.65-0.8-38.65-1.8s17.31-1.8 38.65-1.8C164.87 314.36 182.18 315.16 182.18 316.16z"/><path opacity="0.97" fill="#FFFFFF" d="M181.35 316.16c0 0.97-16.94 1.76-37.82 1.76 -20.89 0-37.82-0.79-37.82-1.76s16.94-1.76 37.82-1.76C164.41 314.4 181.35 315.19 181.35 316.16z"/><path fill="#FFFFFF" d="M180.52 316.16c0 0.95-16.56 1.72-36.99 1.72 -20.43 0-36.99-0.77-36.99-1.72s16.57-1.72 36.99-1.72C163.96 314.44 180.52 315.21 180.52 316.16z"/><path opacity="0" fill="#FFFFFF" d="M316.04 287.39c-1.61 0-2.92-19.89-2.92-44.41 0-24.52 1.31-44.41 2.92-44.41s2.92 19.88 2.92 44.41C318.96 267.5 317.65 287.39 316.04 287.39z"/><ellipse opacity="0.03" fill="#FFFFFF" cx="316.04" cy="242.98" rx="2.88" ry="43.82"/><path opacity="0.06" fill="#FFFFFF" d="M316.04 286.21c-1.57 0-2.84-19.36-2.84-43.23 0-23.87 1.27-43.23 2.84-43.23s2.84 19.36 2.84 43.23C318.88 266.85 317.61 286.21 316.04 286.21z"/><path opacity="0.1" fill="#FFFFFF" d="M316.04 285.62c-1.55 0-2.8-19.09-2.8-42.64 0-23.55 1.26-42.64 2.8-42.64s2.8 19.09 2.8 42.64C318.84 266.53 317.59 285.62 316.04 285.62z"/><ellipse opacity="0.13" fill="#FFFFFF" cx="316.04" cy="242.98" rx="2.76" ry="42.06"/><ellipse opacity="0.16" fill="#FFFFFF" cx="316.04" cy="242.98" rx="2.73" ry="41.47"/><ellipse opacity="0.19" fill="#FFFFFF" cx="316.04" cy="242.98" rx="2.69" ry="40.88"/><path opacity="0.23" fill="#FFFFFF" d="M316.04 283.27c-1.46 0-2.65-18.04-2.65-40.29 0-22.25 1.19-40.29 2.65-40.29s2.65 18.04 2.65 40.29C318.69 265.23 317.5 283.27 316.04 283.27z"/><ellipse opacity="0.26" fill="#FFFFFF" cx="316.04" cy="242.98" rx="2.61" ry="39.7"/><ellipse opacity="0.29" fill="#FFFFFF" cx="316.04" cy="242.98" rx="2.57" ry="39.12"/><ellipse opacity="0.32" fill="#FFFFFF" cx="316.04" cy="242.98" rx="2.53" ry="38.53"/><ellipse opacity="0.35" fill="#FFFFFF" cx="316.04" cy="242.98" rx="2.49" ry="37.94"/><ellipse opacity="0.39" fill="#FFFFFF" cx="316.04" cy="242.98" rx="2.45" ry="37.35"/><ellipse opacity="0.42" fill="#FFFFFF" cx="316.04" cy="242.98" rx="2.42" ry="36.76"/><ellipse opacity="0.45" fill="#FFFFFF" cx="316.04" cy="242.98" rx="2.38" ry="36.17"/><ellipse opacity="0.48" fill="#FFFFFF" cx="316.04" cy="242.98" rx="2.34" ry="35.59"/><ellipse opacity="0.52" fill="#FFFFFF" cx="316.04" cy="242.98" rx="2.3" ry="35"/><path opacity="0.55" fill="#FFFFFF" d="M316.04 277.39c-1.25 0-2.26-15.41-2.26-34.41 0-19 1.01-34.41 2.26-34.41 1.25 0 2.26 15.41 2.26 34.41C318.3 261.98 317.29 277.39 316.04 277.39z"/><ellipse opacity="0.58" fill="#FFFFFF" cx="316.04" cy="242.98" rx="2.22" ry="33.82"/><ellipse opacity="0.61" fill="#FFFFFF" cx="316.04" cy="242.98" rx="2.18" ry="33.23"/><ellipse opacity="0.65" fill="#FFFFFF" cx="316.04" cy="242.98" rx="2.15" ry="32.65"/><ellipse opacity="0.68" fill="#FFFFFF" cx="316.04" cy="242.98" rx="2.11" ry="32.06"/><ellipse opacity="0.71" fill="#FFFFFF" cx="316.04" cy="242.98" rx="2.07" ry="31.47"/><ellipse opacity="0.74" fill="#FFFFFF" cx="316.04" cy="242.98" rx="2.03" ry="30.88"/><ellipse opacity="0.77" fill="#FFFFFF" cx="316.04" cy="242.98" rx="1.99" ry="30.29"/><ellipse opacity="0.81" fill="#FFFFFF" cx="316.04" cy="242.98" rx="1.95" ry="29.71"/><ellipse opacity="0.84" fill="#FFFFFF" cx="316.04" cy="242.98" rx="1.91" ry="29.12"/><ellipse opacity="0.87" fill="#FFFFFF" cx="316.04" cy="242.98" rx="1.87" ry="28.53"/><ellipse opacity="0.9" fill="#FFFFFF" cx="316.04" cy="242.98" rx="1.84" ry="27.94"/><ellipse opacity="0.94" fill="#FFFFFF" cx="316.04" cy="242.98" rx="1.8" ry="27.35"/><ellipse opacity="0.97" fill="#FFFFFF" cx="316.04" cy="242.98" rx="1.76" ry="26.77"/><ellipse fill="#FFFFFF" cx="316.04" cy="242.98" rx="1.72" ry="26.18"/><ellipse opacity="0" fill="#FFFFFF" cx="0.87" cy="128.84" rx="2.92" ry="30.48"/><ellipse opacity="0.03" fill="#FFFFFF" cx="0.87" cy="128.84" rx="2.88" ry="30.08"/><ellipse opacity="0.06" fill="#FFFFFF" cx="0.87" cy="128.84" rx="2.84" ry="29.67"/><ellipse opacity="0.1" fill="#FFFFFF" cx="0.87" cy="128.84" rx="2.8" ry="29.27"/><ellipse opacity="0.13" fill="#FFFFFF" cx="0.87" cy="128.84" rx="2.76" ry="28.86"/><ellipse opacity="0.16" fill="#FFFFFF" cx="0.87" cy="128.84" rx="2.73" ry="28.46"/><ellipse opacity="0.19" fill="#FFFFFF" cx="0.87" cy="128.84" rx="2.69" ry="28.06"/><ellipse opacity="0.23" fill="#FFFFFF" cx="0.87" cy="128.84" rx="2.65" ry="27.65"/><ellipse opacity="0.26" fill="#FFFFFF" cx="0.87" cy="128.84" rx="2.61" ry="27.25"/><ellipse opacity="0.29" fill="#FFFFFF" cx="0.87" cy="128.84" rx="2.57" ry="26.85"/><ellipse opacity="0.32" fill="#FFFFFF" cx="0.87" cy="128.84" rx="2.53" ry="26.44"/><ellipse opacity="0.35" fill="#FFFFFF" cx="0.87" cy="128.84" rx="2.49" ry="26.04"/><ellipse opacity="0.39" fill="#FFFFFF" cx="0.87" cy="128.84" rx="2.45" ry="25.64"/><ellipse opacity="0.42" fill="#FFFFFF" cx="0.87" cy="128.84" rx="2.42" ry="25.23"/><ellipse opacity="0.45" fill="#FFFFFF" cx="0.87" cy="128.84" rx="2.38" ry="24.83"/><ellipse opacity="0.48" fill="#FFFFFF" cx="0.87" cy="128.84" rx="2.34" ry="24.42"/><ellipse opacity="0.52" fill="#FFFFFF" cx="0.87" cy="128.84" rx="2.3" ry="24.02"/><ellipse opacity="0.55" fill="#FFFFFF" cx="0.87" cy="128.84" rx="2.26" ry="23.62"/><ellipse opacity="0.58" fill="#FFFFFF" cx="0.87" cy="128.84" rx="2.22" ry="23.21"/><ellipse opacity="0.61" fill="#FFFFFF" cx="0.87" cy="128.84" rx="2.18" ry="22.81"/><ellipse opacity="0.65" fill="#FFFFFF" cx="0.87" cy="128.84" rx="2.15" ry="22.41"/><ellipse opacity="0.68" fill="#FFFFFF" cx="0.87" cy="128.84" rx="2.11" ry="22"/><ellipse opacity="0.71" fill="#FFFFFF" cx="0.87" cy="128.84" rx="2.07" ry="21.6"/><ellipse opacity="0.74" fill="#FFFFFF" cx="0.87" cy="128.84" rx="2.03" ry="21.2"/><ellipse opacity="0.77" fill="#FFFFFF" cx="0.87" cy="128.84" rx="1.99" ry="20.79"/><ellipse opacity="0.81" fill="#FFFFFF" cx="0.87" cy="128.84" rx="1.95" ry="20.39"/><ellipse opacity="0.84" fill="#FFFFFF" cx="0.87" cy="128.84" rx="1.91" ry="19.99"/><ellipse opacity="0.87" fill="#FFFFFF" cx="0.87" cy="128.84" rx="1.88" ry="19.58"/><ellipse opacity="0.9" fill="#FFFFFF" cx="0.87" cy="128.84" rx="1.84" ry="19.18"/><ellipse opacity="0.94" fill="#FFFFFF" cx="0.87" cy="128.84" rx="1.8" ry="18.77"/><ellipse opacity="0.97" fill="#FFFFFF" cx="0.87" cy="128.84" rx="1.76" ry="18.37"/><ellipse fill="#FFFFFF" cx="0.87" cy="128.84" rx="1.72" ry="17.97"/><path opacity="0" fill="#FFFFFF" d="M262.78 1.11c0 1.61-28.1 2.92-62.75 2.92 -34.65 0-62.75-1.31-62.75-2.92s28.1-2.92 62.75-2.92C234.68-1.8 262.78-0.5 262.78 1.11z"/><path opacity="0.03" fill="#FFFFFF" d="M261.95 1.11c0 1.59-27.73 2.88-61.92 2.88 -34.2 0-61.92-1.29-61.92-2.88 0-1.59 27.73-2.88 61.92-2.88C234.22-1.76 261.95-0.48 261.95 1.11z"/><path opacity="0.06" fill="#FFFFFF" d="M261.12 1.11c0 1.57-27.35 2.84-61.09 2.84 -33.74 0-61.09-1.27-61.09-2.84 0-1.57 27.35-2.84 61.09-2.84C233.76-1.73 261.12-0.45 261.12 1.11z"/><path opacity="0.1" fill="#FFFFFF" d="M260.29 1.11c0 1.55-26.98 2.8-60.26 2.8 -33.28 0-60.26-1.25-60.26-2.8 0-1.55 26.98-2.8 60.26-2.8C233.31-1.69 260.29-0.43 260.29 1.11z"/><ellipse opacity="0.13" fill="#FFFFFF" cx="200.03" cy="1.11" rx="59.43" ry="2.76"/><ellipse opacity="0.16" fill="#FFFFFF" cx="200.03" cy="1.11" rx="58.6" ry="2.73"/><path opacity="0.19" fill="#FFFFFF" d="M257.79 1.11c0 1.48-25.87 2.69-57.77 2.69 -31.9 0-57.77-1.2-57.77-2.69 0-1.48 25.87-2.69 57.77-2.69C231.93-1.57 257.79-0.37 257.79 1.11z"/><path opacity="0.23" fill="#FFFFFF" d="M256.96 1.11c0 1.46-25.49 2.65-56.94 2.65 -31.44 0-56.94-1.19-56.94-2.65 0-1.46 25.49-2.65 56.94-2.65C231.47-1.53 256.96-0.35 256.96 1.11z"/><path opacity="0.26" fill="#FFFFFF" d="M256.13 1.11c0 1.44-25.12 2.61-56.1 2.61s-56.1-1.17-56.1-2.61c0-1.44 25.12-2.61 56.11-2.61S256.13-0.33 256.13 1.11z"/><ellipse opacity="0.29" fill="#FFFFFF" cx="200.03" cy="1.11" rx="55.27" ry="2.57"/><path opacity="0.32" fill="#FFFFFF" d="M254.47 1.11c0 1.4-24.38 2.53-54.44 2.53s-54.44-1.13-54.44-2.53 24.38-2.53 54.44-2.53S254.47-0.28 254.47 1.11z"/><path opacity="0.35" fill="#FFFFFF" d="M253.64 1.11c0 1.38-24.01 2.49-53.61 2.49 -29.61 0-53.61-1.12-53.61-2.49 0-1.38 24.01-2.49 53.61-2.49C229.63-1.38 253.64-0.26 253.64 1.11z"/><ellipse opacity="0.39" fill="#FFFFFF" cx="200.03" cy="1.11" rx="52.78" ry="2.45"/><path opacity="0.42" fill="#FFFFFF" d="M251.98 1.11c0 1.33-23.26 2.42-51.95 2.42 -28.69 0-51.95-1.08-51.95-2.41s23.26-2.42 51.95-2.42C228.72-1.3 251.98-0.22 251.98 1.11z"/><path opacity="0.45" fill="#FFFFFF" d="M251.15 1.11c0 1.31-22.89 2.38-51.12 2.38s-51.12-1.06-51.12-2.38 22.89-2.38 51.12-2.38S251.15-0.2 251.15 1.11z"/><path opacity="0.48" fill="#FFFFFF" d="M250.32 1.11c0 1.29-22.52 2.34-50.29 2.34s-50.29-1.05-50.29-2.34c0-1.29 22.52-2.34 50.29-2.34S250.32-0.18 250.32 1.11z"/><path opacity="0.52" fill="#FFFFFF" d="M249.48 1.11c0 1.27-22.15 2.3-49.46 2.3S150.57 2.38 150.57 1.11s22.15-2.3 49.46-2.3S249.48-0.16 249.48 1.11z"/><path opacity="0.55" fill="#FFFFFF" d="M248.65 1.11c0 1.25-21.77 2.26-48.63 2.26s-48.63-1.01-48.63-2.26 21.77-2.26 48.63-2.26S248.65-0.13 248.65 1.11z"/><path opacity="0.58" fill="#FFFFFF" d="M247.82 1.11c0 1.23-21.4 2.22-47.79 2.22s-47.79-0.99-47.79-2.22c0-1.23 21.4-2.22 47.8-2.22S247.82-0.11 247.82 1.11z"/><path opacity="0.61" fill="#FFFFFF" d="M246.99 1.11c0 1.21-21.03 2.18-46.96 2.18s-46.96-0.98-46.96-2.18c0-1.2 21.03-2.18 46.96-2.18S246.99-0.09 246.99 1.11z"/><path opacity="0.65" fill="#FFFFFF" d="M246.16 1.11c0 1.19-20.66 2.15-46.13 2.15s-46.13-0.96-46.13-2.15c0-1.18 20.66-2.14 46.13-2.14S246.16-0.07 246.16 1.11z"/><path opacity="0.68" fill="#FFFFFF" d="M245.33 1.11c0 1.16-20.28 2.11-45.3 2.11s-45.3-0.94-45.3-2.11c0-1.16 20.29-2.1 45.3-2.1S245.33-0.05 245.33 1.11z"/><path opacity="0.71" fill="#FFFFFF" d="M244.5 1.11c0 1.14-19.91 2.07-44.47 2.07s-44.47-0.93-44.47-2.07c0-1.14 19.91-2.07 44.47-2.07S244.5-0.03 244.5 1.11z"/><path opacity="0.74" fill="#FFFFFF" d="M243.67 1.11c0 1.12-19.54 2.03-43.64 2.03s-43.64-0.91-43.64-2.03c0-1.12 19.54-2.03 43.64-2.03S243.67-0.01 243.67 1.11z"/><path opacity="0.77" fill="#FFFFFF" d="M242.84 1.11c0 1.1-19.17 1.99-42.81 1.99 -23.64 0-42.81-0.89-42.81-1.99 0-1.1 19.17-1.99 42.81-1.99C223.67-0.88 242.84 0.01 242.84 1.11z"/><path opacity="0.81" fill="#FFFFFF" d="M242.01 1.11c0 1.08-18.8 1.95-41.98 1.95 -23.18 0-41.98-0.87-41.98-1.95s18.8-1.95 41.98-1.95C223.21-0.84 242.01 0.04 242.01 1.11z"/><path opacity="0.84" fill="#FFFFFF" d="M241.18 1.11c0 1.06-18.43 1.91-41.15 1.91S158.88 2.17 158.88 1.11c0-1.06 18.43-1.91 41.15-1.91S241.18 0.06 241.18 1.11z"/><path opacity="0.87" fill="#FFFFFF" d="M240.34 1.11c0 1.04-18.05 1.87-40.32 1.87 -22.26 0-40.32-0.84-40.32-1.87s18.05-1.87 40.32-1.87C222.29-0.76 240.34 0.08 240.34 1.11z"/><path opacity="0.9" fill="#FFFFFF" d="M239.51 1.11c0 1.01-17.68 1.84-39.48 1.84 -21.8 0-39.48-0.82-39.48-1.83s17.68-1.83 39.49-1.83C221.83-0.72 239.51 0.1 239.51 1.11z"/><path opacity="0.94" fill="#FFFFFF" d="M238.68 1.11c0 0.99-17.31 1.8-38.65 1.8 -21.34 0-38.65-0.8-38.65-1.8 0-0.99 17.31-1.8 38.65-1.8C221.37-0.68 238.68 0.12 238.68 1.11z"/><path opacity="0.97" fill="#FFFFFF" d="M237.85 1.11c0 0.97-16.94 1.76-37.82 1.76 -20.89 0-37.82-0.79-37.82-1.76s16.94-1.76 37.82-1.76C220.91-0.64 237.85 0.14 237.85 1.11z"/><path fill="#FFFFFF" d="M237.02 1.11c0 0.95-16.56 1.72-36.99 1.72 -20.43 0-36.99-0.77-36.99-1.72s16.57-1.72 36.99-1.72C220.46-0.61 237.02 0.16 237.02 1.11z"/><linearGradient id="SVGID_2_" gradientUnits="userSpaceOnUse" x1="-87.12" y1="-96.77" x2="101.5" y2="100.27"><stop offset="0" stop-color="#3C4144"/><stop offset="0.11" stop-color="#575C5E"/><stop offset="0.43" stop-color="#9FA1A3"/><stop offset="0.69" stop-color="#D3D4D5"/><stop offset="0.89" stop-color="#F3F3F3"/><stop offset="1" stop-color="#FFFFFF"/></linearGradient><path opacity="0.5" fill="url(#SVGID_2_)" d="M2.79 185.83c8.99 1.23 18.22 1.88 27.64 1.88 92.78 0 168-62.08 168-138.67 0-16.2-3.38-31.75-9.57-46.21H2.79V185.83z"/><rect id="Ó·Ú_xF8FF__x2021__x201A_Ó_x2DC_Ì_x2021__x2C7_" x="-124.84" y="-124.84" fill="none" width="566.93" height="566.93"/><path fill="#FFFFFF" d="M191.6 341.91l-0.84 2.54h-1.08l2.75-8.08h1.26l2.76 8.08h-1.11l-0.86-2.54H191.6zM194.26 341.1l-0.79-2.33c-0.18-0.53-0.3-1.01-0.42-1.47h-0.02c-0.12 0.48-0.25 0.97-0.41 1.46l-0.79 2.34H194.26z"/><path fill="#FFFFFF" d="M197.64 336.48c0.46-0.1 1.18-0.17 1.91-0.17 1.04 0 1.72 0.18 2.22 0.59 0.42 0.31 0.67 0.79 0.67 1.43 0 0.78-0.52 1.46-1.37 1.78v0.02c0.77 0.19 1.67 0.83 1.67 2.03 0 0.7-0.28 1.22-0.68 1.62 -0.56 0.52-1.47 0.76-2.79 0.76 -0.72 0-1.27-0.05-1.62-0.1V336.48zM198.69 339.79h0.95c1.1 0 1.75-0.57 1.75-1.35 0-0.95-0.72-1.32-1.77-1.32 -0.48 0-0.75 0.04-0.92 0.07V339.79zM198.69 343.66c0.2 0.04 0.5 0.05 0.88 0.05 1.08 0 2.07-0.39 2.07-1.57 0-1.1-0.95-1.56-2.09-1.56h-0.86V343.66z"/><path fill="#FFFFFF" d="M204 343.18c0.47 0.29 1.15 0.53 1.87 0.53 1.07 0 1.69-0.56 1.69-1.38 0-0.76-0.43-1.19-1.52-1.61 -1.32-0.47-2.13-1.15-2.13-2.29 0-1.26 1.04-2.19 2.61-2.19 0.83 0 1.43 0.19 1.79 0.4l-0.29 0.85c-0.26-0.14-0.8-0.38-1.53-0.38 -1.1 0-1.52 0.66-1.52 1.21 0 0.76 0.49 1.13 1.61 1.56 1.37 0.53 2.06 1.19 2.06 2.38 0 1.25-0.92 2.33-2.83 2.33 -0.78 0-1.63-0.23-2.06-0.52L204 343.18z"/><path fill="#FFFFFF" d="M211.6 337.26h-2.46v-0.89h5.99v0.89h-2.47v7.2h-1.06V337.26z"/><path fill="#FFFFFF" d="M216.03 336.48c0.53-0.11 1.28-0.17 2-0.17 1.12 0 1.84 0.2 2.34 0.66 0.41 0.36 0.64 0.91 0.64 1.54 0 1.07-0.67 1.78-1.52 2.06v0.04c0.62 0.22 1 0.79 1.19 1.63 0.26 1.13 0.46 1.91 0.62 2.22h-1.08c-0.13-0.23-0.31-0.92-0.54-1.93 -0.24-1.11-0.67-1.53-1.62-1.57h-0.98v3.5h-1.04V336.48zM217.07 340.16h1.07c1.12 0 1.82-0.61 1.82-1.53 0-1.04-0.76-1.5-1.86-1.51 -0.5 0-0.86 0.05-1.03 0.1V340.16z"/><path fill="#FFFFFF" d="M223.85 341.91l-0.84 2.54h-1.08l2.75-8.08h1.26l2.76 8.08h-1.11l-0.86-2.54H223.85zM226.5 341.1l-0.79-2.33c-0.18-0.53-0.3-1.01-0.42-1.47h-0.02c-0.12 0.48-0.25 0.97-0.41 1.46l-0.79 2.34H226.5z"/><path fill="#FFFFFF" d="M235.35 344.19c-0.38 0.19-1.15 0.38-2.13 0.38 -2.28 0-3.99-1.44-3.99-4.09 0-2.53 1.72-4.24 4.22-4.24 1.01 0 1.64 0.22 1.92 0.36l-0.25 0.85c-0.39-0.19-0.96-0.34-1.63-0.34 -1.89 0-3.15 1.21-3.15 3.33 0 1.98 1.14 3.25 3.11 3.25 0.64 0 1.28-0.13 1.7-0.34L235.35 344.19z"/><path fill="#FFFFFF" d="M238.54 337.26h-2.46v-0.89h5.99v0.89h-2.47v7.2h-1.06V337.26z"/><path fill="#FFFFFF" d="M245.51 336.48c0.46-0.1 1.18-0.17 1.91-0.17 1.04 0 1.72 0.18 2.22 0.59 0.42 0.31 0.67 0.79 0.67 1.43 0 0.78-0.52 1.46-1.37 1.78v0.02c0.77 0.19 1.67 0.83 1.67 2.03 0 0.7-0.28 1.22-0.68 1.62 -0.56 0.52-1.47 0.76-2.79 0.76 -0.72 0-1.27-0.05-1.62-0.1V336.48zM246.55 339.79h0.95c1.1 0 1.75-0.57 1.75-1.35 0-0.95-0.72-1.32-1.77-1.32 -0.48 0-0.75 0.04-0.92 0.07V339.79zM246.55 343.66c0.2 0.04 0.5 0.05 0.88 0.05 1.08 0 2.07-0.39 2.07-1.57 0-1.1-0.95-1.56-2.09-1.56h-0.86V343.66z"/><path fill="#FFFFFF" d="M253.32 341.91l-0.84 2.54h-1.08l2.75-8.08h1.26l2.76 8.08h-1.11l-0.86-2.54H253.32zM255.97 341.1l-0.79-2.33c-0.18-0.53-0.3-1.01-0.42-1.47h-0.02c-0.12 0.48-0.25 0.97-0.41 1.46l-0.79 2.34H255.97z"/><path fill="#FFFFFF" d="M264.83 344.19c-0.38 0.19-1.15 0.38-2.13 0.38 -2.28 0-3.99-1.44-3.99-4.09 0-2.53 1.72-4.24 4.22-4.24 1.01 0 1.64 0.22 1.92 0.36l-0.25 0.85c-0.4-0.19-0.96-0.34-1.63-0.34 -1.9 0-3.15 1.21-3.15 3.33 0 1.98 1.14 3.25 3.11 3.25 0.64 0 1.28-0.13 1.7-0.34L264.83 344.19z"/><path fill="#FFFFFF" d="M266.14 336.37h1.04v3.9h0.04c0.22-0.31 0.43-0.6 0.64-0.86l2.47-3.03h1.3l-2.93 3.43 3.15 4.65h-1.24l-2.66-3.97 -0.77 0.89v3.08h-1.04V336.37z"/><path fill="#FFFFFF" d="M278.59 344.1c-0.47 0.17-1.39 0.44-2.48 0.44 -1.22 0-2.23-0.31-3.02-1.07 -0.7-0.67-1.13-1.75-1.13-3.01 0.01-2.41 1.67-4.17 4.38-4.17 0.94 0 1.67 0.2 2.02 0.37l-0.25 0.85c-0.43-0.19-0.97-0.35-1.79-0.35 -1.97 0-3.25 1.22-3.25 3.25 0 2.05 1.24 3.26 3.12 3.26 0.68 0 1.15-0.1 1.39-0.22v-2.41h-1.64v-0.84h2.66V344.1z"/><path fill="#FFFFFF" d="M280.19 336.48c0.53-0.11 1.28-0.17 2-0.17 1.12 0 1.83 0.2 2.34 0.66 0.41 0.36 0.64 0.91 0.64 1.54 0 1.07-0.67 1.78-1.52 2.06v0.04c0.62 0.22 0.99 0.79 1.19 1.63 0.27 1.13 0.46 1.91 0.62 2.22h-1.08c-0.13-0.23-0.31-0.92-0.54-1.93 -0.24-1.11-0.67-1.53-1.62-1.57h-0.98v3.5h-1.04V336.48zM281.23 340.16h1.07c1.12 0 1.82-0.61 1.82-1.53 0-1.04-0.75-1.5-1.86-1.51 -0.5 0-0.86 0.05-1.03 0.1V340.16z"/><path fill="#FFFFFF" d="M293.59 340.33c0 2.78-1.69 4.26-3.75 4.26 -2.13 0-3.63-1.65-3.63-4.1 0-2.57 1.6-4.24 3.75-4.24C292.16 336.24 293.59 337.93 293.59 340.33zM287.32 340.46c0 1.73 0.94 3.27 2.58 3.27 1.65 0 2.59-1.52 2.59-3.36 0-1.61-0.84-3.28-2.58-3.28C288.18 337.09 287.32 338.69 287.32 340.46z"/><path fill="#FFFFFF" d="M295.99 336.37v4.79c0 1.81 0.8 2.58 1.88 2.58 1.2 0 1.97-0.79 1.97-2.58v-4.78h1.06v4.71c0 2.48-1.31 3.5-3.06 3.5 -1.65 0-2.9-0.95-2.9-3.45v-4.76H295.99z"/><path fill="#FFFFFF" d="M302.71 344.45v-8.08h1.14l2.59 4.09c0.6 0.95 1.07 1.8 1.45 2.63l0.02-0.01c-0.1-1.08-0.12-2.06-0.12-3.32v-3.38h0.98v8.08h-1.06l-2.57-4.1c-0.56-0.9-1.1-1.82-1.51-2.7l-0.04 0.01c0.06 1.02 0.08 1.99 0.08 3.33v3.45H302.71z"/><path fill="#FFFFFF" d="M310.61 336.48c0.64-0.1 1.39-0.17 2.22-0.17 1.5 0 2.57 0.35 3.27 1.01 0.72 0.66 1.14 1.6 1.14 2.9 0 1.32-0.41 2.4-1.16 3.14 -0.75 0.76-2 1.16-3.57 1.16 -0.74 0-1.37-0.04-1.9-0.1V336.48zM311.65 343.63c0.26 0.05 0.65 0.06 1.06 0.06 2.23 0 3.44-1.25 3.44-3.43 0.01-1.91-1.07-3.12-3.27-3.12 -0.54 0-0.95 0.05-1.22 0.11V343.63z"/></svg>